<svg width="389" height="115" viewBox="0 0 389 115" fill="none" xmlns="http://www.w3.org/2000/svg">
<g clip-path="url(#clip0_6_2)">
<path d="M94.8238 11.5H38.4027C28.2392 11.5 20 19.7392 20 29.9027V86.3238C20 96.4872 28.2392 104.726 38.4027 104.726H94.8238C104.987 104.726 113.226 96.4872 113.226 86.3238V29.9027C113.226 19.7392 104.987 11.5 94.8238 11.5Z" fill="#016E7D"/>
<path d="M83.8661 39.9825H67.5964L64.3759 34.0016H36.6464V42.3665H59.357L62.5775 48.3473H86.0828C86.8774 48.3473 87.5466 49.0165 87.5466 49.8112V72.4382C87.5466 73.2328 86.8774 73.902 86.0828 73.902H46.4751C45.6804 73.902 45.0112 73.2328 45.0112 72.4382V51.7769H36.6464V70.1796C36.6464 76.8297 42.0417 82.2669 48.6917 82.2669H83.8661C90.5162 82.2669 95.9115 76.8716 95.9115 70.1796V52.0279C95.9115 45.3778 90.5162 39.9406 83.8661 39.9406V39.9825Z" fill="#EEFBFF"/>
</g>
<path d="M159.545 93.5H135.886V23.6818H160.023C166.955 23.6818 172.909 25.0795 177.886 27.875C182.886 30.6477 186.727 34.6364 189.409 39.8409C192.091 45.0455 193.432 51.2727 193.432 58.5227C193.432 65.7955 192.08 72.0455 189.375 77.2727C186.693 82.5 182.818 86.5114 177.75 89.3068C172.705 92.1023 166.636 93.5 159.545 93.5ZM148.534 82.5568H158.932C163.795 82.5568 167.852 81.6705 171.102 79.8977C174.352 78.1023 176.795 75.4318 178.432 71.8864C180.068 68.3182 180.886 63.8636 180.886 58.5227C180.886 53.1818 180.068 48.75 178.432 45.2273C176.795 41.6818 174.375 39.0341 171.17 37.2841C167.989 35.5114 164.034 34.625 159.307 34.625H148.534V82.5568ZM204.903 93.5V41.1364H216.869V49.8636H217.415C218.369 46.8409 220.006 44.5114 222.324 42.875C224.665 41.2159 227.335 40.3864 230.335 40.3864C231.017 40.3864 231.778 40.4205 232.619 40.4886C233.483 40.5341 234.199 40.6136 234.767 40.7273V52.0795C234.244 51.8977 233.415 51.7386 232.278 51.6023C231.165 51.4432 230.085 51.3636 229.04 51.3636C226.79 51.3636 224.767 51.8523 222.972 52.8295C221.199 53.7841 219.801 55.1136 218.778 56.8182C217.756 58.5227 217.244 60.4886 217.244 62.7159V93.5H204.903ZM242.966 93.5V41.1364H255.307V93.5H242.966ZM249.17 33.7045C247.216 33.7045 245.534 33.0568 244.125 31.7614C242.716 30.4432 242.011 28.8636 242.011 27.0227C242.011 25.1591 242.716 23.5795 244.125 22.2841C245.534 20.9659 247.216 20.3068 249.17 20.3068C251.148 20.3068 252.83 20.9659 254.216 22.2841C255.625 23.5795 256.33 25.1591 256.33 27.0227C256.33 28.8636 255.625 30.4432 254.216 31.7614C252.83 33.0568 251.148 33.7045 249.17 33.7045ZM314.77 41.1364L296.122 93.5H282.486L263.838 41.1364H276.997L289.031 80.0341H289.577L301.645 41.1364H314.77ZM344.71 94.5227C339.46 94.5227 334.926 93.4318 331.108 91.25C327.313 89.0455 324.392 85.9318 322.347 81.9091C320.301 77.8636 319.278 73.1023 319.278 67.625C319.278 62.2386 320.301 57.5114 322.347 53.4432C324.415 49.3523 327.301 46.1705 331.006 43.8977C334.71 41.6023 339.062 40.4545 344.062 40.4545C347.29 40.4545 350.335 40.9773 353.199 42.0227C356.085 43.0455 358.631 44.6364 360.835 46.7955C363.063 48.9545 364.813 51.7045 366.085 55.0455C367.358 58.3636 367.994 62.3182 367.994 66.9091V70.6932H325.074V62.375H356.165C356.142 60.0114 355.631 57.9091 354.631 56.0682C353.631 54.2045 352.233 52.7386 350.438 51.6705C348.665 50.6023 346.597 50.0682 344.233 50.0682C341.71 50.0682 339.494 50.6818 337.585 51.9091C335.676 53.1136 334.188 54.7045 333.119 56.6818C332.074 58.6364 331.54 60.7841 331.517 63.125V70.3864C331.517 73.4318 332.074 76.0455 333.188 78.2273C334.301 80.3864 335.858 82.0455 337.858 83.2045C339.858 84.3409 342.199 84.9091 344.881 84.9091C346.676 84.9091 348.301 84.6591 349.756 84.1591C351.21 83.6364 352.472 82.875 353.54 81.875C354.608 80.875 355.415 79.6364 355.96 78.1591L367.483 79.4545C366.756 82.5 365.369 85.1591 363.324 87.4318C361.301 89.6818 358.71 91.4318 355.551 92.6818C352.392 93.9091 348.778 94.5227 344.71 94.5227Z" fill="black"/>
<defs>
<clipPath id="clip0_6_2">
<rect width="94" height="94" fill="white" transform="translate(20 11.5)"/>
</clipPath>
</defs>
</svg>
