<svg width="16" height="16" viewBox="0 0 16 16" fill="none"
    xmlns="http://www.w3.org/2000/svg">
    <path d="M12 1H4C2.34315 1 1 2.34315 1 4V12C1 13.6569 2.34315 15 4 15H12C13.6569 15 15 13.6569 15 12V4C15 2.34315 13.6569 1 12 1Z" fill="#E9A454"/>
    <path d="M10.507 7.02073L8.63554 7.64402V10.3828C8.63541 10.788 8.4999 11.1816 8.25051 11.501C8.00112 11.8204 7.65216 12.0473 7.25906 12.1456C6.86596 12.244 6.45126 12.2082 6.08084 12.0439C5.71041 11.8797 5.40549 11.5963 5.21452 11.2389C5.02355 10.8815 4.95748 10.4705 5.0268 10.0713C5.09611 9.67205 5.29685 9.30741 5.59711 9.03529C5.89738 8.76318 6.27996 8.5992 6.68409 8.5694C7.08821 8.5396 7.49071 8.64569 7.82764 8.87081V5.91593C7.82763 5.6616 7.90764 5.41372 8.05634 5.20739C8.20503 5.00106 8.41487 4.84674 8.65614 4.76629L10.2618 4.23106C10.3529 4.20073 10.4499 4.19247 10.5448 4.20696C10.6397 4.22145 10.7298 4.25828 10.8076 4.31441C10.8855 4.37054 10.9489 4.44438 10.9927 4.52982C11.0364 4.61527 11.0592 4.70989 11.0592 4.80588V6.25403C11.0593 6.42361 11.006 6.58891 10.9069 6.72652C10.8078 6.86412 10.6679 6.96705 10.507 7.02073Z" fill="white"/>
</svg>
