<svg width="14" height="14" viewBox="0 0 14 14" fill="none" xmlns="http://www.w3.org/2000/svg">
<path d="M0 3C0 1.34315 1.34315 0 3 0H11C12.6569 0 14 1.34315 14 3V11C14 12.6569 12.6569 14 11 14H3C1.34315 14 0 12.6569 0 11V3Z" fill="#E9A454"/>
<path d="M9.50703 6.02071L7.63554 6.64401V9.38277C7.63541 9.788 7.4999 10.1816 7.25051 10.5009C7.00112 10.8203 6.65216 11.0472 6.25906 11.1456C5.86596 11.244 5.45126 11.2082 5.08084 11.0439C4.71041 10.8796 4.40549 10.5963 4.21452 10.2389C4.02355 9.8815 3.95748 9.47053 4.0268 9.07128C4.09611 8.67203 4.29685 8.30739 4.59711 8.03528C4.89738 7.76317 5.27996 7.59919 5.68409 7.56939C6.08821 7.53959 6.49071 7.64567 6.82764 7.8708V4.91592C6.82763 4.66159 6.90765 4.41371 7.05634 4.20738C7.20503 4.00105 7.41487 3.84673 7.65614 3.76628L9.26183 3.23105C9.3529 3.20071 9.44988 3.19245 9.54478 3.20694C9.63967 3.22144 9.72976 3.25826 9.80763 3.3144C9.8855 3.37053 9.94891 3.44436 9.99266 3.52981C10.0364 3.61526 10.0592 3.70987 10.0592 3.80587V5.25402C10.0593 5.4236 10.006 5.5889 9.90689 5.72651C9.80778 5.86411 9.66789 5.96704 9.50703 6.02071Z" fill="white"/>
</svg>
