<svg width="16" height="16" viewBox="0 0 16 16" fill="none" xmlns="http://www.w3.org/2000/svg">
<path fill-rule="evenodd" clip-rule="evenodd" d="M4 1C2.34315 1 1 2.34315 1 4V12C1 13.6569 2.34315 15 4 15H12C13.6569 15 15 13.6569 15 12V4C15 2.34315 13.6569 1 12 1H4ZM8.96776 4.11873C9.2357 4.18553 9.39875 4.4569 9.33195 4.72484L7.63849 11.5169C7.57169 11.7848 7.30032 11.9479 7.03238 11.8811C6.76444 11.8143 6.60139 11.5429 6.6682 11.275L8.36165 4.48292C8.42845 4.21498 8.69982 4.05192 8.96776 4.11873ZM5.01571 5.63143C5.21097 5.43617 5.52755 5.43617 5.72281 5.63143C5.91807 5.82669 5.91807 6.14327 5.72281 6.33853L4.06111 8.00024L5.72281 9.66194C5.91807 9.8572 5.91807 10.1738 5.72281 10.369C5.52755 10.5643 5.21097 10.5643 5.01571 10.369L3.00045 8.35379C2.80519 8.15853 2.80519 7.84194 3.00045 7.64668L5.01571 5.63143ZM10.9845 5.63143C10.7893 5.43617 10.4727 5.43617 10.2774 5.63143C10.0822 5.82669 10.0822 6.14327 10.2774 6.33853L11.9391 8.00024L10.2774 9.66194C10.0822 9.8572 10.0822 10.1738 10.2774 10.369C10.4727 10.5643 10.7893 10.5643 10.9845 10.369L12.9998 8.35379C13.195 8.15853 13.195 7.84194 12.9998 7.64668L10.9845 5.63143Z" fill="#171717"/>
</svg>
