<svg width="14" height="14" viewBox="0 0 14 14" fill="none" xmlns="http://www.w3.org/2000/svg">
<path d="M0 3C0 1.34315 1.34315 0 3 0H11C12.6569 0 14 1.34315 14 3V11C14 12.6569 12.6569 14 11 14H3C1.34315 14 0 12.6569 0 11V3Z" fill="#2BA6DB"/>
<path d="M5.21429 4C5.42619 4 5.63334 4.06284 5.80954 4.18057C5.98573 4.2983 6.12306 4.46563 6.20416 4.66141C6.28525 4.85719 6.30647 5.07262 6.26513 5.28045C6.22379 5.48829 6.12174 5.6792 5.9719 5.82904C5.82206 5.97888 5.63115 6.08093 5.42331 6.12227C5.21547 6.16361 5.00005 6.14239 4.80427 6.0613C4.60849 5.98021 4.44116 5.84288 4.32343 5.66668C4.2057 5.49049 4.14286 5.28334 4.14286 5.07143C4.14286 4.78727 4.25574 4.51475 4.45667 4.31381C4.6576 4.11288 4.93013 4 5.21429 4ZM2.70648 11.8571C2.39556 11.8571 2.20351 11.518 2.36348 11.2513L3.87928 8.72502C4.01316 8.50187 4.32111 8.46396 4.50512 8.64797L5.85445 9.9973C6.07756 10.2204 6.44901 10.1836 6.62403 9.9211L8.76052 6.71637C8.93088 6.46082 9.31376 6.48466 9.45111 6.75936L11.7106 11.2783C11.8435 11.5442 11.6501 11.8571 11.3528 11.8571H2.70648Z" fill="white"/>
</svg>
