<svg width="16" height="16" viewBox="0 0 16 16" fill="none"
    xmlns="http://www.w3.org/2000/svg">
    <path d="M12 1H4C2.34315 1 1 2.34315 1 4V12C1 13.6569 2.34315 15 4 15H12C13.6569 15 15 13.6569 15 12V4C15 2.34315 13.6569 1 12 1Z" fill="#2BA6DB"/>
    <path d="M6.21434 5C6.42624 5 6.63339 5.06284 6.80959 5.18057C6.98578 5.2983 7.12311 5.46563 7.20421 5.66141C7.2853 5.85719 7.30652 6.07262 7.26518 6.28045C7.22384 6.48829 7.12179 6.6792 6.97195 6.82904C6.82211 6.97888 6.6312 7.08093 6.42336 7.12227C6.21552 7.16361 6.0001 7.14239 5.80432 7.0613C5.60854 6.98021 5.44121 6.84288 5.32348 6.66668C5.20575 6.49049 5.14291 6.28334 5.14291 6.07143C5.14291 5.78727 5.25579 5.51475 5.45672 5.31381C5.65765 5.11288 5.93018 5 6.21434 5ZM3.70653 12.8571C3.39561 12.8571 3.20356 12.518 3.36353 12.2513L4.87933 9.72502C5.01321 9.50187 5.32116 9.46396 5.50517 9.64797L6.8545 10.9973C7.07761 11.2204 7.44906 11.1836 7.62408 10.9211L9.76057 7.71637C9.93093 7.46082 10.3139 7.48466 10.4512 7.75936L12.7107 12.2783C12.8436 12.5442 12.6502 12.8571 12.3529 12.8571H3.70653Z" fill="white"/>
</svg>
