<svg width="16" height="16" viewBox="0 0 16 16" fill="none" xmlns="http://www.w3.org/2000/svg">
<path fill-rule="evenodd" clip-rule="evenodd" d="M4 1C2.34315 1 1 2.34315 1 4V12C1 13.6569 2.34315 15 4 15H12C13.6569 15 15 13.6569 15 12V4C15 2.34315 13.6569 1 12 1H4ZM10.6245 7.6466L9.77368 8.49742L10.4808 9.20453L11.3316 8.3537C12.3492 7.33612 12.3492 5.68629 11.3316 4.66871C10.314 3.65112 8.6642 3.65112 7.64662 4.66871L6.79579 5.51953L7.5029 6.22664L8.35372 5.37581C8.98078 4.74875 9.99745 4.74875 10.6245 5.37581C11.2516 6.00287 11.2516 7.01954 10.6245 7.6466ZM5.37606 8.3537L6.22688 7.50287L5.51978 6.79576L4.66895 7.64659C3.65137 8.66417 3.65137 10.314 4.66895 11.3316C5.68653 12.3492 7.33636 12.3492 8.35395 11.3316L9.20477 10.4808L8.49767 9.77365L7.64684 10.6245C7.01978 11.2515 6.00312 11.2515 5.37606 10.6245C4.749 9.99742 4.749 8.98076 5.37606 8.3537ZM9.55895 7.14932L9.2054 7.50287L7.50375 9.20452L7.15019 9.55808L6.44309 8.85097L6.79664 8.49742L8.49829 6.79576L8.85185 6.44221L9.55895 7.14932Z" fill="#E34AA6"/>
</svg>
