<svg width="20" height="20" viewBox="0 0 20 20" fill="none" xmlns="http://www.w3.org/2000/svg">
<g clip-path="url(#clip0_9533_11708)">
<path d="M15.8318 18.2279C17.2699 17.8582 18.3327 16.5529 18.3327 14.9994V4.99935C18.3327 3.1584 16.8403 1.66602 14.9994 1.66602H4.99935C3.1584 1.66602 1.66602 3.1584 1.66602 4.99935V14.9993C1.66602 16.5529 2.72878 17.8582 4.16694 18.2279M15.8318 18.2279C15.5657 18.2963 15.2868 18.3327 14.9993 18.3327H4.99935C4.71193 18.3327 4.43301 18.2963 4.16694 18.2279M15.8318 18.2279C15.7759 15.0546 13.186 12.4993 9.99935 12.4993C6.81269 12.4993 4.22283 15.0546 4.16694 18.2279M12.4993 7.49935C12.4993 6.11864 11.3801 4.99935 9.99935 4.99935C8.61864 4.99935 7.49935 6.11864 7.49935 7.49935C7.49935 8.88006 8.61864 9.99935 9.99935 9.99935C11.3801 9.99935 12.4993 8.88006 12.4993 7.49935Z" stroke="#404040" stroke-width="1.5"/>
</g>
<defs>
<clipPath id="clip0_9533_11708">
<rect width="20" height="20" fill="white"/>
</clipPath>
</defs>
</svg>
