<svg width="14" height="14" viewBox="0 0 14 14" fill="none" xmlns="http://www.w3.org/2000/svg">
<path d="M0 3C0 1.34315 1.34315 0 3 0H11C12.6569 0 14 1.34315 14 3V11C14 12.6569 12.6569 14 11 14H3C1.34315 14 0 12.6569 0 11V3Z" fill="#E24C4C"/>
<path d="M2.66401 12C3.02298 12 3.63445 11.7569 4.80893 9.67733C5.48574 9.36689 6.22857 9.08878 6.96295 8.87111C7.49662 8.71311 8.03074 8.58889 8.55263 8.50189C9.41304 9.03 10.4129 9.36811 11.1247 9.36811C11.9118 9.36811 11.993 8.92289 11.9993 8.78656C12.0078 8.59978 11.9413 8.42689 11.8068 8.28622C11.5214 7.98744 10.9395 7.836 10.0775 7.836C9.64853 7.836 9.17454 7.87467 8.6671 7.95089C8.15365 7.61222 7.72956 7.21311 7.43672 6.79256C7.16155 6.39778 6.91738 5.96589 6.70989 5.50744C7.27179 3.86178 7.38115 2.78089 7.03485 2.29411C6.89782 2.10178 6.69489 2 6.44773 2C6.17178 2 5.94617 2.122 5.79536 2.35278C5.34749 3.03811 5.69545 4.46922 6.14466 5.52956C5.93539 6.12033 5.67422 6.757 5.3865 7.37778C5.06198 8.07811 4.74113 8.71489 4.4324 9.27211C3.55054 9.68933 2.14435 10.4651 2.01087 11.22C1.97231 11.4388 2.03677 11.6393 2.19736 11.7999C2.32827 11.9308 2.48964 12 2.66401 12ZM10.0774 8.36233C11.074 8.36233 11.3616 8.58222 11.426 8.64967C11.4702 8.69578 11.4747 8.73267 11.4728 8.76867C11.4628 8.78422 11.3747 8.84167 11.1246 8.84167C10.7339 8.84167 10.1161 8.69889 9.45116 8.38878C9.66987 8.37122 9.87903 8.36233 10.0774 8.36233ZM6.23612 2.64067C6.28847 2.56056 6.35182 2.52633 6.44773 2.52633C6.53586 2.52633 6.57464 2.55544 6.60576 2.59911C6.76013 2.81611 6.77046 3.48589 6.40427 4.73189C6.06575 3.717 6.04864 2.92744 6.23612 2.64067ZM5.86415 7.599C6.07609 7.14167 6.27413 6.67544 6.4485 6.22411L6.45551 6.23978L6.46662 6.20767C6.63021 6.51789 6.81014 6.81411 7.00463 7.09333C7.24479 7.43822 7.56019 7.76833 7.93283 8.067L7.88004 8.07522L7.9026 8.08967C7.54163 8.16611 7.17722 8.25878 6.81347 8.36656C6.28214 8.524 5.74613 8.71222 5.23213 8.92122L5.24869 8.89156L5.22779 8.90133C5.43706 8.49711 5.65 8.06144 5.86415 7.599ZM2.52932 11.3116C2.57288 11.0651 3.02443 10.6269 3.93196 10.1197C3.11922 11.3991 2.74059 11.4737 2.66401 11.4737C2.63879 11.4737 2.60989 11.4681 2.56955 11.4279C2.52643 11.3846 2.52209 11.3526 2.52932 11.3116Z" fill="white"/>
</svg>
