<svg width="16" height="16" viewBox="0 0 16 16" fill="none"
    xmlns="http://www.w3.org/2000/svg">
    <path d="M12 1H4C2.34315 1 1 2.34315 1 4V12C1 13.6569 2.34315 15 4 15H12C13.6569 15 15 13.6569 15 12V4C15 2.34315 13.6569 1 12 1Z" fill="#E24C4C"/>
    <path d="M3.66401 13C4.02298 13 4.63445 12.7569 5.80893 10.6773C6.48574 10.3669 7.22857 10.0888 7.96295 9.87111C8.49662 9.71311 9.03074 9.58889 9.55263 9.50189C10.413 10.03 11.4129 10.3681 12.1247 10.3681C12.9118 10.3681 12.993 9.92289 12.9993 9.78656C13.0078 9.59978 12.9413 9.42689 12.8068 9.28622C12.5214 8.98744 11.9395 8.836 11.0775 8.836C10.6485 8.836 10.1745 8.87467 9.6671 8.95089C9.15365 8.61222 8.72956 8.21311 8.43672 7.79256C8.16155 7.39778 7.91738 6.96589 7.70989 6.50744C8.27179 4.86178 8.38115 3.78089 8.03485 3.29411C7.89782 3.10178 7.69489 3 7.44773 3C7.17178 3 6.94617 3.122 6.79536 3.35278C6.34749 4.03811 6.69545 5.46922 7.14466 6.52956C6.93539 7.12033 6.67422 7.757 6.3865 8.37778C6.06198 9.07811 5.74113 9.71489 5.4324 10.2721C4.55054 10.6893 3.14435 11.4651 3.01087 12.22C2.97231 12.4388 3.03677 12.6393 3.19736 12.7999C3.32827 12.9308 3.48964 13 3.66401 13ZM11.0774 9.36233C12.074 9.36233 12.3616 9.58222 12.426 9.64967C12.4702 9.69578 12.4747 9.73267 12.4728 9.76867C12.4628 9.78422 12.3747 9.84167 12.1246 9.84167C11.7339 9.84167 11.1161 9.69889 10.4512 9.38878C10.6699 9.37122 10.879 9.36233 11.0774 9.36233ZM7.23612 3.64067C7.28847 3.56056 7.35182 3.52633 7.44773 3.52633C7.53586 3.52633 7.57464 3.55544 7.60576 3.59911C7.76013 3.81611 7.77046 4.48589 7.40427 5.73189C7.06575 4.717 7.04864 3.92744 7.23612 3.64067ZM6.86415 8.599C7.07609 8.14167 7.27413 7.67544 7.4485 7.22411L7.45551 7.23978L7.46662 7.20767C7.63021 7.51789 7.81014 7.81411 8.00463 8.09333C8.24479 8.43822 8.56019 8.76833 8.93283 9.067L8.88004 9.07522L8.9026 9.08967C8.54163 9.16611 8.17722 9.25878 7.81347 9.36656C7.28214 9.524 6.74613 9.71222 6.23213 9.92122L6.24869 9.89156L6.22779 9.90133C6.43706 9.49711 6.65 9.06144 6.86415 8.599ZM3.52932 12.3116C3.57288 12.0651 4.02443 11.6269 4.93196 11.1197C4.11922 12.3991 3.74059 12.4737 3.66401 12.4737C3.63879 12.4737 3.60989 12.4681 3.56955 12.4279C3.52643 12.3846 3.52209 12.3526 3.52932 12.3116Z" fill="white"/>
</svg>
