<svg width="30" height="30" viewBox="0 0 30 30" fill="none" xmlns="http://www.w3.org/2000/svg">
<path fill-rule="evenodd" clip-rule="evenodd" d="M2.375 5.40865H14.8341C14.9418 5.40865 15.0466 5.37388 15.133 5.30951L18.4156 2.86207C18.4588 2.82989 18.5112 2.8125 18.5651 2.8125H27.625C27.9011 2.8125 28.125 3.03636 28.125 3.3125V25.1875C28.125 26.2921 27.2296 27.1875 26.125 27.1875H3.875C2.77043 27.1875 1.875 26.2921 1.875 25.1875V5.90865C1.875 5.63251 2.09886 5.40865 2.375 5.40865ZM14.7535 13.125C15.496 13.125 16.1525 13.4928 16.551 14.0561C16.3968 14.4664 16.3125 14.9108 16.3125 15.375C16.3125 15.8143 16.388 16.236 16.5268 16.6278C16.1263 17.1721 15.4812 17.5254 14.7535 17.5254C13.5384 17.5254 12.5533 16.5403 12.5533 15.3252C12.5533 14.1101 13.5384 13.125 14.7535 13.125ZM14.2113 20.975C14.4307 19.9861 14.9951 19.147 15.7607 18.5734H13.577C12.0657 18.5734 10.7571 19.6231 10.4293 21.0984L10.3515 21.4481C10.1278 22.455 10.894 23.4101 11.9254 23.4101H14.7582C14.2229 22.9357 13.9416 22.1903 14.1122 21.4213L14.2113 20.975ZM19.936 17.5254C21.1511 17.5254 22.1362 16.5403 22.1362 15.3252C22.1362 14.1101 21.1511 13.125 19.936 13.125C18.7209 13.125 17.7358 14.1101 17.7358 15.3252C17.7358 16.5403 18.7209 17.5254 19.936 17.5254ZM15.612 21.0982C15.9398 19.6229 17.2484 18.5732 18.7597 18.5732H21.1103C22.6216 18.5732 23.9302 19.6229 24.258 21.0982L24.3358 21.448C24.5595 22.4548 23.7933 23.41 22.7619 23.41H17.1081C16.0767 23.41 15.3105 22.4548 15.5343 21.448L15.612 21.0982Z" fill="#525252"/>
</svg>
