<svg width="16" height="16" viewBox="0 0 16 16" fill="none"
    xmlns="http://www.w3.org/2000/svg">
    <path d="M8 1.76C8 1.34026 7.65974 1 7.24 1H4C2.89543 1 2 1.89543 2 3V13C2 14.1046 2.89543 15 4 15H12C13.1046 15 14 14.1037 14 12.9991C14 11.0958 14 10.1122 14 7.76171C14 7.34197 13.6597 7 13.24 7H9C8.44772 7 8 6.55228 8 6V3.25V1.76Z" fill="#505A62"/>
    <path d="M9 1.48284C9 1.30466 9.21543 1.21543 9.34142 1.34142L11.5 3.5L13.6586 5.65858C13.7846 5.78457 13.6953 6 13.5172 6H9.5C9.22386 6 9 5.77614 9 5.5V1.48284Z" fill="#505A62"/>
</svg>
