<svg width="12" height="14" viewBox="0 0 12 14" fill="none" xmlns="http://www.w3.org/2000/svg">
<path d="M6 0.76C6 0.340264 5.65974 0 5.24 0H2C0.89543 0 0 0.895431 0 2V12C0 13.1046 0.895431 14 2 14H10C11.1046 14 12 13.1037 12 11.9991C12 10.0958 12 9.11223 12 6.76171C12 6.34197 11.6597 6 11.24 6H7C6.44772 6 6 5.55228 6 5V0.76Z" fill="#505A62"/>
<path d="M7 0.482843C7 0.304662 7.21543 0.215428 7.34142 0.341421L11.6586 4.65858C11.7846 4.78457 11.6953 5 11.5172 5H7.5C7.22386 5 7 4.77614 7 4.5V0.482843Z" fill="#505A62"/>
</svg>
