<svg width="14" height="14" viewBox="0 0 14 14" fill="none" xmlns="http://www.w3.org/2000/svg">
<path d="M0 3C0 1.34315 1.34315 0 3 0H11C12.6569 0 14 1.34315 14 3V11C14 12.6569 12.6569 14 11 14H3C1.34315 14 0 12.6569 0 11V3Z" fill="#8454E9"/>
<path d="M9.4712 7.47937L5.84287 9.87625C5.641 10.0145 5.37753 10.0387 5.15197 9.93979C4.92641 9.84084 4.77312 9.63381 4.75 9.39688V4.60313C4.77312 4.36619 4.92641 4.15916 5.15197 4.06021C5.37753 3.96127 5.641 3.9855 5.84287 4.12375L9.4712 6.52063C9.64449 6.62321 9.75 6.80463 9.75 7C9.75 7.19537 9.64449 7.37679 9.4712 7.47937Z" fill="white"/>
</svg>
