<svg width="22" height="23" viewBox="0 0 22 23" fill="none"
    xmlns="http://www.w3.org/2000/svg">
    <g filter="url(#filter0_d_101_48)">
        <path d="M15 1H7C5.34315 1 4 2.34315 4 4V12C4 13.6569 5.34315 15 7 15H15C16.6569 15 18 13.6569 18 12V4C18 2.34315 16.6569 1 15 1Z" fill="#0073CA"/>
        <path fill-rule="evenodd" clip-rule="evenodd" d="M10.9619 7.06343L9.8203 11.1015H8.61522L7 5H8.3277L9.27907 9.30021H9.34672L10.4588 5H11.537L12.6702 9.30021H12.7378L13.6808 5H15L13.3805 11.1015H12.1839L11.0296 7.06343H10.9619Z" fill="white"/>
    </g>
    <defs>
        <filter id="filter0_d_101_48" x="-1" y="0" width="24" height="24" filterUnits="userSpaceOnUse" color-interpolation-filters="sRGB">
            <feFlood flood-opacity="0" result="BackgroundImageFix"/>
            <feColorMatrix in="SourceAlpha" type="matrix" values="0 0 0 0 0 0 0 0 0 0 0 0 0 0 0 0 0 0 127 0" result="hardAlpha"/>
            <feOffset dy="4"/>
            <feGaussianBlur stdDeviation="2"/>
            <feComposite in2="hardAlpha" operator="out"/>
            <feColorMatrix type="matrix" values="0 0 0 0 0 0 0 0 0 0 0 0 0 0 0 0 0 0 0.25 0"/>
            <feBlend mode="normal" in2="BackgroundImageFix" result="effect1_dropShadow_101_48"/>
            <feBlend mode="normal" in="SourceGraphic" in2="effect1_dropShadow_101_48" result="shape"/>
        </filter>
    </defs>
</svg>
