<svg width="16" height="16" viewBox="0 0 16 16" fill="none"
    xmlns="http://www.w3.org/2000/svg">
    <path d="M12 1H4C2.34315 1 1 2.34315 1 4V12C1 13.6569 2.34315 15 4 15H12C13.6569 15 15 13.6569 15 12V4C15 2.34315 13.6569 1 12 1Z" fill="#48BB74"/>
    <path d="M8 13H6V14H8V13Z" fill="white"/>
    <path d="M8 11H6V12H8V11Z" fill="white"/>
    <path d="M8 9H6V10H8V9Z" fill="white"/>
    <path d="M8 7H6V8H8V7Z" fill="white"/>
    <path d="M8 5H6V6H8V5Z" fill="white"/>
    <path d="M8 3H6V4H8V3Z" fill="white"/>
    <path d="M8 1H6V2H8V1Z" fill="white"/>
    <path d="M10 14H8V15H10V14Z" fill="white"/>
    <path d="M10 12H8V13H10V12Z" fill="white"/>
    <path d="M10 10H8V11H10V10Z" fill="white"/>
    <path d="M10 8H8V9H10V8Z" fill="white"/>
    <path d="M10 6H8V7H10V6Z" fill="white"/>
    <path d="M10 4H8V5H10V4Z" fill="white"/>
    <path d="M10 2H8V3H10V2Z" fill="white"/>
</svg>
