<svg width="16" height="16" viewBox="0 0 16 16" fill="none" xmlns="http://www.w3.org/2000/svg">
<g clip-path="url(#clip0_1942_8000)">
<path fill-rule="evenodd" clip-rule="evenodd" d="M4 1C2.34315 1 1 2.34315 1 4V12C1 13.6569 2.34315 15 4 15H12C13.6569 15 15 13.6569 15 12V4C15 2.34315 13.6569 1 12 1H4ZM5.25002 7C6.21652 7 7.00002 6.2165 7.00002 5.25C7.00002 4.2835 6.21652 3.5 5.25002 3.5C4.28352 3.5 3.50002 4.2835 3.50002 5.25C3.50002 6.2165 4.28352 7 5.25002 7ZM3.67581 14C3.44371 14 3.33689 13.7112 3.51312 13.5602L9.7211 8.23906C9.88705 8.09682 10.1262 8.07885 10.3115 8.19469L13.765 10.3531C13.9112 10.4445 14 10.6047 14 10.7771V12C14 13.1046 13.1046 14 12 14H3.67581Z" fill="#34BAE3"/>
</g>
<defs>
<clipPath id="clip0_1942_8000">
<rect width="16" height="16" fill="white"/>
</clipPath>
</defs>
</svg>
