<svg width="16" height="16" viewBox="0 0 16 16" fill="none" xmlns="http://www.w3.org/2000/svg">
<path fill-rule="evenodd" clip-rule="evenodd" d="M4 1C2.34315 1 1 2.34315 1 4V12C1 13.6569 2.34315 15 4 15H12C13.6569 15 15 13.6569 15 12V6.5H12C10.6193 6.5 9.5 5.38071 9.5 4V1H4ZM10.5 1.09336V4C10.5 4.82843 11.1716 5.5 12 5.5H14.9066C14.7744 4.98265 14.5053 4.5053 14.1213 4.12132L11.8787 1.87868C11.4947 1.4947 11.0174 1.22556 10.5 1.09336ZM4 7.5C3.72386 7.5 3.5 7.72386 3.5 8C3.5 8.27614 3.72386 8.5 4 8.5H10C10.2761 8.5 10.5 8.27614 10.5 8C10.5 7.72386 10.2761 7.5 10 7.5H4ZM4 10.5C3.72386 10.5 3.5 10.7239 3.5 11C3.5 11.2761 3.72386 11.5 4 11.5H8C8.27614 11.5 8.5 11.2761 8.5 11C8.5 10.7239 8.27614 10.5 8 10.5H4Z" fill="#E79913"/>
</svg>
