<svg width="16" height="16" viewBox="0 0 16 16" fill="none" xmlns="http://www.w3.org/2000/svg">
<path fill-rule="evenodd" clip-rule="evenodd" d="M4 1C2.34315 1 1 2.34315 1 4V12C1 13.6569 2.34315 15 4 15H12C13.6569 15 15 13.6569 15 12V4C15 2.34315 13.6569 1 12 1H4ZM9.99363 3.86769C10.2674 3.82819 10.5444 3.91261 10.7509 4.09842C10.9528 4.28078 11.0669 4.54233 11.0638 4.81589L11.0638 10.3381C11.0638 11.0366 10.3629 11.6024 9.49922 11.6024C8.63555 11.6024 7.93461 11.0366 7.93461 10.3381C7.93461 9.6396 8.63555 9.07384 9.49922 9.07384C9.82973 9.07182 10.1544 9.16147 10.438 9.33302V5.64521L6.68293 6.18569V10.8776C6.68293 11.5761 5.98198 12.1418 5.11832 12.1418C4.25465 12.1418 3.55371 11.5761 3.55371 10.8776C3.55371 10.1791 4.25465 9.61332 5.11832 9.61332C5.44883 9.6113 5.77354 9.70094 6.05708 9.87249V5.26786C6.05244 4.79193 6.39784 4.38627 6.86442 4.31966L9.99363 3.86769Z" fill="#9C45E3"/>
</svg>
