<svg width="16" height="16" viewBox="0 0 16 16" fill="none" xmlns="http://www.w3.org/2000/svg">
<path fill-rule="evenodd" clip-rule="evenodd" d="M4 1C2.34315 1 1 2.34315 1 4V12C1 13.6569 2.34315 15 4 15H12C13.6569 15 15 13.6569 15 12V4C15 2.34315 13.6569 1 12 1H4ZM6.52309 9.24625L6.98994 10.7196H8.39048L6.24469 4.53924H4.72423L2.57844 10.7196H3.87619L4.35161 9.24625H6.52309ZM4.62946 8.24803L5.40468 5.82385H5.48178L6.24844 8.24803H4.62946ZM9.72689 7.86272C9.76972 7.25025 10.1766 6.84765 10.7548 6.84765C11.3373 6.84765 11.7142 7.2374 11.7399 7.86272H9.72689ZM12.9266 9.37463H11.7659C11.6331 9.68729 11.2948 9.86289 10.8022 9.86289C10.1512 9.86289 9.74002 9.42603 9.72289 8.72362V8.65937H12.9651V8.27818C12.9651 6.77913 12.1428 5.89255 10.7508 5.89255C9.34599 5.89255 8.48082 6.84338 8.48082 8.38098C8.48082 9.91429 9.32886 10.8223 10.7679 10.8223C11.9244 10.8223 12.7381 10.2655 12.9266 9.37463Z" fill="#7757EE"/>
</svg>
