<svg width="16" height="16" viewBox="0 0 16 16" fill="none" xmlns="http://www.w3.org/2000/svg">
<path fill-rule="evenodd" clip-rule="evenodd" d="M4 1C2.34315 1 1 2.34315 1 4V12C1 13.6569 2.34315 15 4 15H12C13.6569 15 15 13.6569 15 12V4C15 2.34315 13.6569 1 12 1H4ZM5.98414 5H3.52197V10.9018H4.75715V9.06953H5.92279C7.16614 9.06953 8.02913 8.25562 8.02913 7.0409C8.02913 5.81391 7.19886 5 5.98414 5ZM4.75713 8.0675V6.01433H5.65692C6.36858 6.01433 6.77349 6.37425 6.77349 7.04501C6.77349 7.70758 6.3604 8.0675 5.65283 8.0675H4.75713ZM10.4863 6.29242C9.36152 6.29242 8.60896 6.86093 8.60896 7.71573C8.60896 8.41103 9.03432 8.82821 9.90958 9.02044L10.7276 9.20448C11.1243 9.29037 11.2961 9.42534 11.2961 9.6462C11.2961 9.93659 10.9771 10.1288 10.5149 10.1288C10.0405 10.1288 9.75007 9.95295 9.66009 9.6462H8.49854C8.58033 10.5133 9.30017 11 10.4904 11C11.6724 11 12.4781 10.411 12.4781 9.51123C12.4781 8.83639 12.0854 8.46829 11.2102 8.27606L10.3636 8.09201C9.94639 7.99794 9.75416 7.86297 9.75416 7.64211C9.75416 7.35581 10.0691 7.16358 10.4944 7.16358C10.9362 7.16358 11.2102 7.34354 11.2715 7.63393H12.3717C12.3063 6.77095 11.6315 6.29242 10.4863 6.29242Z" fill="#267A94"/>
</svg>
